# xmcd
#
# Track frame offsets: 
#        150
#        19929
#        31876
#        50285
#        67168
#        77358
#        93542
#        110190
#        127043
#        149390
#        168065
#        185610
#        199765
#        214249
#        234007
#        249155
#        266283
#        278424
#        293721
#        309648
#        327716
#
# Disc length: 4510 seconds
#
# Revision: 4
# Processed by: cddbd v1.5.2PL0 Copyright (c) Steve Scherf et al.
# Submitted via: ExactAudioCopyFreeDBPlugin 1.0
#
DISCID=2d119c15
DTITLE=Various Artist - Zlatna Zbirka CD3
DYEAR=2005
DGENRE=
TTITLE0=Ken Barrie - Mona Lisa
TTITLE1=Brenda Lee - I'm Sorry
TTITLE2=Engelbert Humperdinck - The More I See You
TTITLE3=Porter Vic Damone - Night and Day
TTITLE4=Tony Bennet - Blue Moon
TTITLE5=Engelbert Humperdinck - A Lovely Way to Spend An Evening
TTITLE6=Mary Carewe - Try a Little Tenderness
TTITLE7=Kenny Rogers - When A Man Loves A Woman
TTITLE8=Vic Damone - Feelings
TTITLE9=Kiki Dee - Amoureuse
TTITLE10=Jose Feliciano - Daniel
TTITLE11=Sandie Shaw - Words
TTITLE12=Connie Francis - Raining In My Heart
TTITLE13=The Korgis - Baker Street
TTITLE14=Shirley Bassey - Yesterday
TTITLE15=Vic Damone - Michelle
TTITLE16=Brenda Lee - If You Love Me
TTITLE17=John Baker - If Tomorrow Never Comes
TTITLE18=Mary Carewe - The Rose
TTITLE19=Vic Damone - Our Love Is Here To Stay
TTITLE20=Tommy Blaize - Memories Are Made of This
EXTD=
EXTT0=
EXTT1=
EXTT2=
EXTT3=
EXTT4=
EXTT5=
EXTT6=
EXTT7=
EXTT8=
EXTT9=
EXTT10=
EXTT11=
EXTT12=
EXTT13=
EXTT14=
EXTT15=
EXTT16=
EXTT17=
EXTT18=
EXTT19=
EXTT20=
PLAYORDER=
